<svg width="40" height="43" viewBox="0 0 40 43" fill="none" xmlns="http://www.w3.org/2000/svg">
<path d="M20.1318 42.7499H19.8683C18.2533 42.7499 17.4479 42.7499 16.7467 42.4311C16.0454 42.1145 15.5418 41.5216 14.5345 40.3359L9.4728 34.3795C8.48467 33.2171 7.99167 32.637 7.73455 31.9464C7.47955 31.2579 7.47955 30.512 7.47955 29.0224V17.8385C7.47955 16.3829 7.47955 15.6561 7.16505 15.0165C6.85267 14.3769 6.26617 13.903 5.09317 12.9552L4.65117 12.6004C2.13942 10.5731 0.883548 9.55736 0.875048 8.09111C0.866548 6.62486 1.98005 5.70261 4.20705 3.86236C4.54705 3.57902 4.87855 3.32119 5.20155 3.08886C6.41917 2.21761 8.1808 1.25498 9.4218 0.611108C9.88007 0.379257 10.3854 0.255627 10.899 0.249733C11.4125 0.243838 11.9206 0.355836 12.384 0.577108L12.945 0.840608C13.0952 0.911441 13.2163 1.01202 13.3084 1.14236C16.4917 5.63886 23.5084 5.63886 26.6917 1.14236C26.785 1.01233 26.9101 0.908436 27.055 0.840608L27.616 0.577108C28.0795 0.355836 28.5876 0.243838 29.1011 0.249733C29.6147 0.255627 30.12 0.379257 30.5783 0.611108C31.8193 1.25498 33.5809 2.21761 34.7985 3.08886C35.1244 3.32402 35.4559 3.58115 35.793 3.86023C38.02 5.70261 39.1335 6.62486 39.125 8.09111C39.1166 9.55736 37.8585 10.5731 35.3489 12.6004L34.9069 12.9552C33.7339 13.903 33.1474 14.3769 32.8351 15.0165C32.5227 15.6561 32.5227 16.3829 32.5227 17.8385V29.0224C32.5227 30.512 32.5227 31.2579 32.2655 31.9464C32.0105 32.6349 31.5154 33.2171 30.5273 34.3795L25.4655 40.3359C24.4583 41.5216 23.9547 42.1145 23.2534 42.4332C22.5522 42.7499 21.7447 42.7499 20.1318 42.7499Z" fill="black"/>
</svg>
