<svg width="23" height="44" viewBox="0 0 23 44" fill="none" xmlns="http://www.w3.org/2000/svg">
<path d="M5.64533 17.3115L9.10766 1.18933C9.15971 0.946997 9.29329 0.729841 9.4861 0.574092C9.67891 0.418344 9.9193 0.333422 10.1672 0.333496H21.6039C22.2561 0.333496 22.7631 0.905496 22.6331 1.54466C20.9528 9.76391 13.0835 18.5552 13.0835 18.5552L14.4712 20.8897C15.333 22.3392 15.7531 24.0086 15.6802 25.6932L15.2502 35.6382L17.2467 38.0887C17.6249 38.5526 17.8695 39.1108 17.9542 39.7033C18.039 40.2957 17.9607 40.9001 17.7277 41.4514L17.6682 41.5944C17.4981 41.9958 17.2466 42.3575 16.9296 42.6567C16.6126 42.956 16.237 43.1862 15.8265 43.3329C15.416 43.4796 14.9796 43.5396 14.5447 43.509C14.1099 43.4785 13.6861 43.3581 13.3002 43.1555C12.4582 42.7133 11.4912 42.5697 10.5572 42.7482L6.24333 43.5726C6.10827 43.5986 5.97286 43.6116 5.83708 43.6116H2.25016C1.67553 43.6116 1.12443 43.3833 0.718099 42.977C0.31177 42.5706 0.0834961 42.0195 0.0834961 41.4449V40.1947H3.3335L10.3752 37.3477L5.82625 23.532C5.6103 22.8762 5.50023 22.1901 5.50016 21.4997V18.6765C5.50016 18.2164 5.54855 17.7614 5.64533 17.3115Z" fill="black"/>
</svg>
