<svg width="1628" height="124" viewBox="0 0 1628 124" fill="none" xmlns="http://www.w3.org/2000/svg">
<path d="M0 122.893V1.10714H25.0249L36.2239 59.4397V1.10714H59.7279V122.893H35.9473L23.7806 62V122.893H0Z" fill="#FF4655"/>
<path d="M103.794 124C94.0696 124 86.6266 121.071 81.465 115.212C76.3494 109.307 73.7916 100.796 73.7916 89.6786V31.8304C73.7916 21.4048 76.3264 13.4933 81.3958 8.09598C86.5114 2.69866 93.9774 0 103.794 0C113.61 0 121.053 2.69866 126.123 8.09598C131.238 13.4933 133.796 21.4048 133.796 31.8304V89.6786C133.796 100.796 131.215 109.307 126.054 115.212C120.938 121.071 113.518 124 103.794 124ZM104.001 101.58C107.688 101.58 109.532 98.0052 109.532 90.8549V31.4152C109.532 25.4182 107.734 22.4196 104.139 22.4196C100.084 22.4196 98.0561 25.4874 98.0561 31.6228V90.9933C98.0561 94.776 98.5169 97.4978 99.4387 99.1585C100.36 100.773 101.881 101.58 104.001 101.58Z" fill="#FF4655"/>
<path d="M158.298 122.893V24.4955H143.85V1.10714H197.08V24.4955H182.632V122.893H158.298Z" fill="#FF4655"/>
<path d="M272.492 124C267.008 124 262.007 122.939 257.491 120.817C252.974 118.695 249.38 115.558 246.707 111.406C244.08 107.208 242.766 102.065 242.766 95.9754V65.4598H266.823V94.5223C266.823 96.6443 267.238 98.3512 268.068 99.6429C268.943 100.935 270.326 101.58 272.215 101.58C275.856 101.58 277.677 99.343 277.677 94.8683V1.10714H302.218V92.4464C302.218 98.9048 300.95 104.51 298.415 109.261C295.881 113.967 292.378 117.611 287.908 120.194C283.437 122.731 278.299 124 272.492 124Z" fill="#FF4655"/>
<path d="M344.002 124C333.863 124 326.397 121.163 321.604 115.489C316.811 109.769 314.415 101.373 314.415 90.3013V1.10714H338.057V89.3326C338.057 91.3623 338.172 93.3229 338.403 95.2143C338.633 97.0595 339.163 98.5818 339.993 99.7812C340.822 100.981 342.159 101.58 344.002 101.58C345.892 101.58 347.251 101.004 348.081 99.8504C348.91 98.651 349.417 97.1057 349.602 95.2143C349.832 93.3229 349.947 91.3623 349.947 89.3326V1.10714H373.59V90.3013C373.59 101.373 371.193 109.769 366.4 115.489C361.607 121.163 354.141 124 344.002 124Z" fill="#FF4655"/>
<path d="M416.066 124C404.959 124 396.94 121.232 392.009 115.696C387.123 110.161 384.681 101.35 384.681 89.2634V77.3616H408.738V92.5848C408.738 95.3988 409.153 97.6131 409.982 99.2277C410.858 100.796 412.356 101.58 414.476 101.58C416.688 101.58 418.209 100.935 419.038 99.6429C419.914 98.3512 420.352 96.2292 420.352 93.2768C420.352 89.5402 419.983 86.4263 419.246 83.9353C418.508 81.3981 417.218 78.9993 415.374 76.7388C413.577 74.4323 411.065 71.7567 407.839 68.7121L396.917 58.3326C388.759 50.6287 384.681 41.8177 384.681 31.8996C384.681 21.5201 387.077 13.6086 391.87 8.16518C396.709 2.72173 403.691 0 412.817 0C423.969 0 431.873 2.97545 436.528 8.92634C441.229 14.8772 443.579 23.9189 443.579 36.0513H418.831V27.6786C418.831 26.0179 418.347 24.7262 417.379 23.8036C416.457 22.881 415.19 22.4196 413.577 22.4196C411.641 22.4196 410.213 22.9732 409.291 24.0804C408.415 25.1414 407.978 26.5253 407.978 28.2321C407.978 29.939 408.438 31.7842 409.36 33.7679C410.282 35.7515 412.102 38.035 414.821 40.6183L428.855 54.1116C431.666 56.7872 434.247 59.6243 436.597 62.6228C438.948 65.5751 440.837 69.035 442.266 73.0022C443.694 76.9234 444.409 81.721 444.409 87.3951C444.409 98.8356 442.289 107.808 438.049 114.312C433.855 120.771 426.527 124 416.066 124Z" fill="#FF4655"/>
<path d="M467.252 122.893V24.4955H452.804V1.10714H506.034V24.4955H491.585V122.893H467.252Z" fill="#FF4655"/>
<path d="M551.167 122.893L562.919 1.10714H604.189L615.734 122.893H592.714L590.985 103.241H576.33L574.809 122.893H551.167ZM578.058 83.7969H589.119L583.796 21.8661H582.69L578.058 83.7969Z" fill="#FF4655"/>
<path d="M675.315 122.893V24.4955H660.867V1.10714H714.097V24.4955H699.649V122.893H675.315Z" fill="#FF4655"/>
<path d="M720.003 122.893L731.755 1.10714H773.026L784.57 122.893H761.55L759.822 103.241H745.166L743.646 122.893H720.003ZM746.895 83.7969H757.955L752.632 21.8661H751.526L746.895 83.7969Z" fill="#FF4655"/>
<path d="M824.627 124C815.824 124 808.727 121.255 803.335 115.766C797.989 110.276 795.316 102.595 795.316 92.7232V36.5357C795.316 24.7262 797.643 15.6845 802.298 9.41071C806.999 3.1369 814.626 0 825.18 0C830.94 0 836.056 1.06101 840.526 3.18304C845.043 5.30506 848.591 8.48809 851.172 12.7321C853.753 16.9301 855.044 22.2351 855.044 28.6473V49.683H830.848V31.692C830.848 28.0476 830.387 25.6027 829.466 24.3571C828.544 23.0655 827.115 22.4196 825.18 22.4196C822.921 22.4196 821.401 23.25 820.617 24.9107C819.834 26.5253 819.442 28.6935 819.442 31.4152V92.3772C819.442 95.7448 819.926 98.1205 820.894 99.5045C821.907 100.888 823.336 101.58 825.18 101.58C827.253 101.58 828.705 100.727 829.535 99.0201C830.41 97.3132 830.848 95.099 830.848 92.3772V70.442H855.32V93.4844C855.32 104.187 852.624 111.96 847.232 116.804C841.84 121.601 834.305 124 824.627 124Z" fill="#FF4655"/>
<path d="M866.48 87.6719V71.6183H902.151V87.6719H866.48Z" fill="#FF4655"/>
<path d="M944.973 124C933.866 124 925.847 121.232 920.916 115.696C916.031 110.161 913.588 101.35 913.588 89.2634V77.3616H937.645V92.5848C937.645 95.3988 938.06 97.6131 938.889 99.2277C939.765 100.796 941.263 101.58 943.383 101.58C945.595 101.58 947.116 100.935 947.945 99.6429C948.821 98.3512 949.259 96.2292 949.259 93.2768C949.259 89.5402 948.89 86.4263 948.153 83.9353C947.415 81.3981 946.125 78.9993 944.281 76.7388C942.484 74.4323 939.972 71.7567 936.746 68.7121L925.824 58.3326C917.667 50.6287 913.588 41.8177 913.588 31.8996C913.588 21.5201 915.984 13.6086 920.777 8.16518C925.616 2.72173 932.599 0 941.724 0C952.877 0 960.78 2.97545 965.435 8.92634C970.136 14.8772 972.486 23.9189 972.486 36.0513H947.738V27.6786C947.738 26.0179 947.254 24.7262 946.286 23.8036C945.364 22.881 944.097 22.4196 942.484 22.4196C940.548 22.4196 939.12 22.9732 938.198 24.0804C937.322 25.1414 936.885 26.5253 936.885 28.2321C936.885 29.939 937.345 31.7842 938.267 33.7679C939.189 35.7515 941.009 38.035 943.728 40.6183L957.762 54.1116C960.573 56.7872 963.154 59.6243 965.504 62.6228C967.855 65.5751 969.744 69.035 971.173 73.0022C972.602 76.9234 973.316 81.721 973.316 87.3951C973.316 98.8356 971.196 107.808 966.956 114.312C962.762 120.771 955.434 124 944.973 124Z" fill="#FF4655"/>
<path d="M985.72 122.893V1.10714H1009.92V44.6317H1021.39V1.10714H1045.59V122.893H1021.39V67.6741H1009.92V122.893H985.72Z" fill="#FF4655"/>
<path d="M1089.65 124C1079.93 124 1072.49 121.071 1067.32 115.212C1062.21 109.307 1059.65 100.796 1059.65 89.6786V31.8304C1059.65 21.4048 1062.19 13.4933 1067.25 8.09598C1072.37 2.69866 1079.84 0 1089.65 0C1099.47 0 1106.91 2.69866 1111.98 8.09598C1117.1 13.4933 1119.65 21.4048 1119.65 31.8304V89.6786C1119.65 100.796 1117.07 109.307 1111.91 115.212C1106.8 121.071 1099.38 124 1089.65 124ZM1089.86 101.58C1093.55 101.58 1095.39 98.0052 1095.39 90.8549V31.4152C1095.39 25.4182 1093.59 22.4196 1090 22.4196C1085.94 22.4196 1083.91 25.4874 1083.91 31.6228V90.9933C1083.91 94.776 1084.38 97.4978 1085.3 99.1585C1086.22 100.773 1087.74 101.58 1089.86 101.58Z" fill="#FF4655"/>
<path d="M1162.75 124C1153.03 124 1145.59 121.071 1140.42 115.212C1135.31 109.307 1132.75 100.796 1132.75 89.6786V31.8304C1132.75 21.4048 1135.29 13.4933 1140.35 8.09598C1145.47 2.69866 1152.94 0 1162.75 0C1172.57 0 1180.01 2.69866 1185.08 8.09598C1190.2 13.4933 1192.76 21.4048 1192.76 31.8304V89.6786C1192.76 100.796 1190.17 109.307 1185.01 115.212C1179.9 121.071 1172.48 124 1162.75 124ZM1162.96 101.58C1166.65 101.58 1168.49 98.0052 1168.49 90.8549V31.4152C1168.49 25.4182 1166.69 22.4196 1163.1 22.4196C1159.04 22.4196 1157.02 25.4874 1157.02 31.6228V90.9933C1157.02 94.776 1157.48 97.4978 1158.4 99.1585C1159.32 100.773 1160.84 101.58 1162.96 101.58Z" fill="#FF4655"/>
<path d="M1217.26 122.893V24.4955H1202.81V1.10714H1256.04V24.4955H1241.59V122.893H1217.26Z" fill="#FF4655"/>
<path d="M1267.06 122.893V1.10714H1315.73V24.6339H1291.81V48.3683H1314.76V71.2723H1291.81V99.1585H1317.32V122.893H1267.06Z" fill="#FF4655"/>
<path d="M1329.65 122.893V1.10714H1366.98C1373.21 1.10714 1377.91 2.5372 1381.09 5.39732C1384.27 8.21131 1386.39 12.1786 1387.45 17.2991C1388.55 22.3735 1389.11 28.3475 1389.11 35.221C1389.11 41.8638 1388.25 47.1689 1386.55 51.1362C1384.89 55.1034 1381.73 57.8482 1377.08 59.3705C1380.9 60.1548 1383.57 62.0692 1385.1 65.1138C1386.66 68.1123 1387.45 72.0104 1387.45 76.808V122.893H1363.46V75.2165C1363.46 71.6644 1362.72 69.4732 1361.25 68.6429C1359.82 67.7664 1357.49 67.3281 1354.26 67.3281V122.893H1329.65ZM1354.4 46.2232H1360.28C1363.64 46.2232 1365.32 42.5558 1365.32 35.221C1365.32 30.4695 1364.96 27.3557 1364.22 25.8795C1363.48 24.4033 1362.1 23.6652 1360.07 23.6652H1354.4V46.2232Z" fill="#FF4655"/>
<path d="M1438.8 122.893V1.10714H1487.47V24.8415H1463.27V44.2165H1486.22V67.6741H1463.27V122.893H1438.8Z" fill="#FF4655"/>
<path d="M1499.6 122.893V1.10714H1531.74C1538.47 1.10714 1543.79 2.6064 1547.71 5.60491C1551.67 8.60342 1554.51 12.8705 1556.21 18.4062C1557.92 23.942 1558.77 30.5387 1558.77 38.1964C1558.77 45.5774 1558.06 52.0126 1556.63 57.5022C1555.2 62.9457 1552.64 67.1667 1548.95 70.1652C1545.31 73.1637 1540.13 74.6629 1533.4 74.6629H1523.51V122.893H1499.6ZM1523.51 52.7969H1524.9C1529.41 52.7969 1532.18 51.5283 1533.19 48.9911C1534.21 46.4539 1534.71 42.7173 1534.71 37.7812C1534.71 33.1682 1534.21 29.6161 1533.19 27.125C1532.23 24.5878 1529.9 23.3192 1526.21 23.3192H1523.51V52.7969Z" fill="#FF4655"/>
<path d="M1599.66 124C1588.55 124 1580.53 121.232 1575.6 115.696C1570.71 110.161 1568.27 101.35 1568.27 89.2634V77.3616H1592.33V92.5848C1592.33 95.3988 1592.74 97.6131 1593.57 99.2277C1594.45 100.796 1595.95 101.58 1598.07 101.58C1600.28 101.58 1601.8 100.935 1602.63 99.6429C1603.51 98.3512 1603.94 96.2292 1603.94 93.2768C1603.94 89.5402 1603.57 86.4263 1602.84 83.9353C1602.1 81.3981 1600.81 78.9993 1598.97 76.7388C1597.17 74.4323 1594.66 71.7567 1591.43 68.7121L1580.51 58.3326C1572.35 50.6287 1568.27 41.8177 1568.27 31.8996C1568.27 21.5201 1570.67 13.6086 1575.46 8.16518C1580.3 2.72173 1587.28 0 1596.41 0C1607.56 0 1615.46 2.97545 1620.12 8.92634C1624.82 14.8772 1627.17 23.9189 1627.17 36.0513H1602.42V27.6786C1602.42 26.0179 1601.94 24.7262 1600.97 23.8036C1600.05 22.881 1598.78 22.4196 1597.17 22.4196C1595.23 22.4196 1593.8 22.9732 1592.88 24.0804C1592.01 25.1414 1591.57 26.5253 1591.57 28.2321C1591.57 29.939 1592.03 31.7842 1592.95 33.7679C1593.87 35.7515 1595.69 38.035 1598.41 40.6183L1612.45 54.1116C1615.26 56.7872 1617.84 59.6243 1620.19 62.6228C1622.54 65.5751 1624.43 69.035 1625.86 73.0022C1627.29 76.9234 1628 81.721 1628 87.3951C1628 98.8356 1625.88 107.808 1621.64 114.312C1617.45 120.771 1610.12 124 1599.66 124Z" fill="#FF4655"/>
</svg>
